<mxfile host="app.diagrams.net" modified="2023-10-07T16:46:34.617Z" agent="Mozilla/5.0 (Windows NT 10.0; Win64; x64) AppleWebKit/537.36 (KHTML, like Gecko) Chrome/117.0.0.0 Safari/537.36 Edg/117.0.2045.47" etag="-Uwoj9vdvPMoVdCjnxml" version="22.0.4" type="device">
  <diagram name="Page-1" id="SDDQJxv7iUoTQycEIjn0">
    <mxGraphModel dx="1290" dy="719" grid="1" gridSize="10" guides="1" tooltips="1" connect="1" arrows="1" fold="1" page="1" pageScale="1" pageWidth="850" pageHeight="1100" math="0" shadow="0">
      <root>
        <mxCell id="0" />
        <mxCell id="1" parent="0" />
        <mxCell id="4_UEG6HJdvu9gBl9bT9P-12" style="edgeStyle=orthogonalEdgeStyle;rounded=0;orthogonalLoop=1;jettySize=auto;html=1;" edge="1" parent="1" source="4_UEG6HJdvu9gBl9bT9P-1">
          <mxGeometry relative="1" as="geometry">
            <mxPoint x="230" y="160" as="targetPoint" />
          </mxGeometry>
        </mxCell>
        <mxCell id="4_UEG6HJdvu9gBl9bT9P-13" value="Авторизироваться &lt;br&gt;или &lt;br&gt;зарегистрироваться" style="edgeLabel;html=1;align=center;verticalAlign=middle;resizable=0;points=[];" vertex="1" connectable="0" parent="4_UEG6HJdvu9gBl9bT9P-12">
          <mxGeometry x="-0.2225" y="6" relative="1" as="geometry">
            <mxPoint as="offset" />
          </mxGeometry>
        </mxCell>
        <mxCell id="4_UEG6HJdvu9gBl9bT9P-1" value="Клиент" style="shape=umlActor;verticalLabelPosition=bottom;verticalAlign=top;html=1;outlineConnect=0;" vertex="1" parent="1">
          <mxGeometry x="20" y="130" width="30" height="60" as="geometry" />
        </mxCell>
        <mxCell id="4_UEG6HJdvu9gBl9bT9P-2" value="Авторизация" style="rounded=0;whiteSpace=wrap;html=1;" vertex="1" parent="1">
          <mxGeometry x="190" y="80" width="80" height="50" as="geometry" />
        </mxCell>
        <mxCell id="4_UEG6HJdvu9gBl9bT9P-3" value="Список лэйаутов" style="rounded=0;whiteSpace=wrap;html=1;" vertex="1" parent="1">
          <mxGeometry x="290" y="80" width="150" height="50" as="geometry" />
        </mxCell>
        <mxCell id="4_UEG6HJdvu9gBl9bT9P-4" value="Режим рисования стен" style="rounded=0;whiteSpace=wrap;html=1;" vertex="1" parent="1">
          <mxGeometry x="460" y="80" width="160" height="50" as="geometry" />
        </mxCell>
        <mxCell id="4_UEG6HJdvu9gBl9bT9P-5" value="Оформление заказа" style="rounded=0;whiteSpace=wrap;html=1;" vertex="1" parent="1">
          <mxGeometry x="930" y="80" width="130" height="50" as="geometry" />
        </mxCell>
        <mxCell id="4_UEG6HJdvu9gBl9bT9P-6" value="Режим выбора и расстановки объектов" style="rounded=0;whiteSpace=wrap;html=1;" vertex="1" parent="1">
          <mxGeometry x="630" y="80" width="180" height="50" as="geometry" />
        </mxCell>
        <mxCell id="4_UEG6HJdvu9gBl9bT9P-7" value="" style="endArrow=none;html=1;rounded=0;exitX=0.5;exitY=1;exitDx=0;exitDy=0;" edge="1" parent="1" source="4_UEG6HJdvu9gBl9bT9P-2">
          <mxGeometry width="50" height="50" relative="1" as="geometry">
            <mxPoint x="600" y="310" as="sourcePoint" />
            <mxPoint x="230" y="540" as="targetPoint" />
          </mxGeometry>
        </mxCell>
        <mxCell id="4_UEG6HJdvu9gBl9bT9P-8" value="" style="endArrow=none;html=1;rounded=0;exitX=0.5;exitY=1;exitDx=0;exitDy=0;" edge="1" parent="1" source="4_UEG6HJdvu9gBl9bT9P-3">
          <mxGeometry width="50" height="50" relative="1" as="geometry">
            <mxPoint x="409.28999999999996" y="140" as="sourcePoint" />
            <mxPoint x="365" y="540" as="targetPoint" />
          </mxGeometry>
        </mxCell>
        <mxCell id="4_UEG6HJdvu9gBl9bT9P-10" value="" style="endArrow=none;html=1;rounded=0;exitX=0.5;exitY=1;exitDx=0;exitDy=0;" edge="1" parent="1" source="4_UEG6HJdvu9gBl9bT9P-6">
          <mxGeometry width="50" height="50" relative="1" as="geometry">
            <mxPoint x="665" y="140" as="sourcePoint" />
            <mxPoint x="720" y="530" as="targetPoint" />
          </mxGeometry>
        </mxCell>
        <mxCell id="4_UEG6HJdvu9gBl9bT9P-11" value="" style="endArrow=none;html=1;rounded=0;exitX=0.5;exitY=1;exitDx=0;exitDy=0;" edge="1" parent="1" source="4_UEG6HJdvu9gBl9bT9P-5">
          <mxGeometry width="50" height="50" relative="1" as="geometry">
            <mxPoint x="905" y="140" as="sourcePoint" />
            <mxPoint x="995" y="550" as="targetPoint" />
          </mxGeometry>
        </mxCell>
        <mxCell id="4_UEG6HJdvu9gBl9bT9P-14" value="" style="endArrow=none;html=1;rounded=0;exitX=0.5;exitY=1;exitDx=0;exitDy=0;" edge="1" parent="1">
          <mxGeometry width="50" height="50" relative="1" as="geometry">
            <mxPoint x="539.29" y="130" as="sourcePoint" />
            <mxPoint x="539.29" y="540" as="targetPoint" />
          </mxGeometry>
        </mxCell>
        <mxCell id="4_UEG6HJdvu9gBl9bT9P-15" value="Просмотр рендера сцены" style="rounded=0;whiteSpace=wrap;html=1;" vertex="1" parent="1">
          <mxGeometry x="820" y="80" width="100" height="50" as="geometry" />
        </mxCell>
        <mxCell id="4_UEG6HJdvu9gBl9bT9P-16" value="" style="endArrow=none;html=1;rounded=0;exitX=0.5;exitY=1;exitDx=0;exitDy=0;" edge="1" parent="1">
          <mxGeometry width="50" height="50" relative="1" as="geometry">
            <mxPoint x="869.29" y="130" as="sourcePoint" />
            <mxPoint x="869.29" y="550" as="targetPoint" />
          </mxGeometry>
        </mxCell>
        <mxCell id="4_UEG6HJdvu9gBl9bT9P-17" style="edgeStyle=orthogonalEdgeStyle;rounded=0;orthogonalLoop=1;jettySize=auto;html=1;" edge="1" parent="1">
          <mxGeometry relative="1" as="geometry">
            <mxPoint x="363" y="210" as="targetPoint" />
            <mxPoint x="233" y="210" as="sourcePoint" />
          </mxGeometry>
        </mxCell>
        <mxCell id="4_UEG6HJdvu9gBl9bT9P-18" value="Создать,&lt;br&gt;удалить,&lt;br&gt;выбрать&lt;br&gt;лэйаут" style="edgeLabel;html=1;align=center;verticalAlign=middle;resizable=0;points=[];labelBackgroundColor=default;" vertex="1" connectable="0" parent="4_UEG6HJdvu9gBl9bT9P-17">
          <mxGeometry x="-0.2225" y="6" relative="1" as="geometry">
            <mxPoint as="offset" />
          </mxGeometry>
        </mxCell>
        <mxCell id="4_UEG6HJdvu9gBl9bT9P-19" style="edgeStyle=orthogonalEdgeStyle;rounded=0;orthogonalLoop=1;jettySize=auto;html=1;" edge="1" parent="1">
          <mxGeometry relative="1" as="geometry">
            <mxPoint x="537" y="280" as="targetPoint" />
            <mxPoint x="367" y="280" as="sourcePoint" />
          </mxGeometry>
        </mxCell>
        <mxCell id="4_UEG6HJdvu9gBl9bT9P-21" style="rounded=0;orthogonalLoop=1;jettySize=auto;html=1;dashed=1;" edge="1" parent="1">
          <mxGeometry relative="1" as="geometry">
            <mxPoint x="366" y="309" as="targetPoint" />
            <mxPoint x="536" y="309" as="sourcePoint" />
          </mxGeometry>
        </mxCell>
        <mxCell id="4_UEG6HJdvu9gBl9bT9P-42" value="Сохранить и выйти" style="edgeLabel;html=1;align=center;verticalAlign=middle;resizable=0;points=[];" vertex="1" connectable="0" parent="4_UEG6HJdvu9gBl9bT9P-21">
          <mxGeometry x="0.1341" relative="1" as="geometry">
            <mxPoint as="offset" />
          </mxGeometry>
        </mxCell>
        <mxCell id="4_UEG6HJdvu9gBl9bT9P-22" style="edgeStyle=orthogonalEdgeStyle;rounded=0;orthogonalLoop=1;jettySize=auto;html=1;" edge="1" parent="1">
          <mxGeometry relative="1" as="geometry">
            <mxPoint x="720" y="340" as="targetPoint" />
            <mxPoint x="540" y="340" as="sourcePoint" />
          </mxGeometry>
        </mxCell>
        <mxCell id="4_UEG6HJdvu9gBl9bT9P-23" style="rounded=0;orthogonalLoop=1;jettySize=auto;html=1;dashed=1;" edge="1" parent="1">
          <mxGeometry relative="1" as="geometry">
            <mxPoint x="540" y="360" as="targetPoint" />
            <mxPoint x="720" y="360" as="sourcePoint" />
          </mxGeometry>
        </mxCell>
        <mxCell id="4_UEG6HJdvu9gBl9bT9P-24" style="rounded=0;orthogonalLoop=1;jettySize=auto;html=1;dashed=1;" edge="1" parent="1">
          <mxGeometry relative="1" as="geometry">
            <mxPoint x="365" y="380" as="targetPoint" />
            <mxPoint x="715" y="380" as="sourcePoint" />
          </mxGeometry>
        </mxCell>
        <mxCell id="4_UEG6HJdvu9gBl9bT9P-39" value="Сохранить и выйти" style="edgeLabel;html=1;align=center;verticalAlign=middle;resizable=0;points=[];" vertex="1" connectable="0" parent="4_UEG6HJdvu9gBl9bT9P-24">
          <mxGeometry x="-0.4411" y="2" relative="1" as="geometry">
            <mxPoint x="3" y="-2" as="offset" />
          </mxGeometry>
        </mxCell>
        <mxCell id="4_UEG6HJdvu9gBl9bT9P-25" style="edgeStyle=orthogonalEdgeStyle;rounded=0;orthogonalLoop=1;jettySize=auto;html=1;" edge="1" parent="1">
          <mxGeometry relative="1" as="geometry">
            <mxPoint x="870" y="330" as="targetPoint" />
            <mxPoint x="540" y="330" as="sourcePoint" />
          </mxGeometry>
        </mxCell>
        <mxCell id="4_UEG6HJdvu9gBl9bT9P-26" style="edgeStyle=orthogonalEdgeStyle;rounded=0;orthogonalLoop=1;jettySize=auto;html=1;" edge="1" parent="1">
          <mxGeometry relative="1" as="geometry">
            <mxPoint x="870" y="400" as="targetPoint" />
            <mxPoint x="720" y="400" as="sourcePoint" />
          </mxGeometry>
        </mxCell>
        <mxCell id="4_UEG6HJdvu9gBl9bT9P-27" style="rounded=0;orthogonalLoop=1;jettySize=auto;html=1;dashed=1;" edge="1" parent="1">
          <mxGeometry relative="1" as="geometry">
            <mxPoint x="720" y="420" as="targetPoint" />
            <mxPoint x="870" y="420" as="sourcePoint" />
          </mxGeometry>
        </mxCell>
        <mxCell id="4_UEG6HJdvu9gBl9bT9P-34" value="Вернуться к ред." style="edgeLabel;html=1;align=center;verticalAlign=middle;resizable=0;points=[];" vertex="1" connectable="0" parent="4_UEG6HJdvu9gBl9bT9P-27">
          <mxGeometry x="-0.0368" y="-2" relative="1" as="geometry">
            <mxPoint as="offset" />
          </mxGeometry>
        </mxCell>
        <mxCell id="4_UEG6HJdvu9gBl9bT9P-28" style="rounded=0;orthogonalLoop=1;jettySize=auto;html=1;dashed=1;" edge="1" parent="1">
          <mxGeometry relative="1" as="geometry">
            <mxPoint x="540" y="440" as="targetPoint" />
            <mxPoint x="870" y="440" as="sourcePoint" />
          </mxGeometry>
        </mxCell>
        <mxCell id="4_UEG6HJdvu9gBl9bT9P-33" value="Вернуться к редактированию" style="edgeLabel;html=1;align=center;verticalAlign=middle;resizable=0;points=[];" vertex="1" connectable="0" parent="4_UEG6HJdvu9gBl9bT9P-28">
          <mxGeometry x="-0.2743" y="-1" relative="1" as="geometry">
            <mxPoint as="offset" />
          </mxGeometry>
        </mxCell>
        <mxCell id="4_UEG6HJdvu9gBl9bT9P-29" style="rounded=0;orthogonalLoop=1;jettySize=auto;html=1;dashed=1;" edge="1" parent="1">
          <mxGeometry relative="1" as="geometry">
            <mxPoint x="370" y="460" as="targetPoint" />
            <mxPoint x="870" y="460" as="sourcePoint" />
          </mxGeometry>
        </mxCell>
        <mxCell id="4_UEG6HJdvu9gBl9bT9P-30" value="Сохранить и выйти" style="edgeLabel;html=1;align=center;verticalAlign=middle;resizable=0;points=[];" vertex="1" connectable="0" parent="4_UEG6HJdvu9gBl9bT9P-29">
          <mxGeometry x="0.049" relative="1" as="geometry">
            <mxPoint as="offset" />
          </mxGeometry>
        </mxCell>
        <mxCell id="4_UEG6HJdvu9gBl9bT9P-35" style="edgeStyle=orthogonalEdgeStyle;rounded=0;orthogonalLoop=1;jettySize=auto;html=1;" edge="1" parent="1">
          <mxGeometry relative="1" as="geometry">
            <mxPoint x="995" y="490" as="targetPoint" />
            <mxPoint x="870" y="490" as="sourcePoint" />
          </mxGeometry>
        </mxCell>
        <mxCell id="4_UEG6HJdvu9gBl9bT9P-36" style="rounded=0;orthogonalLoop=1;jettySize=auto;html=1;dashed=1;" edge="1" parent="1">
          <mxGeometry relative="1" as="geometry">
            <mxPoint x="870" y="520" as="targetPoint" />
            <mxPoint x="992" y="520" as="sourcePoint" />
          </mxGeometry>
        </mxCell>
        <mxCell id="4_UEG6HJdvu9gBl9bT9P-37" value="Вернуться к&amp;nbsp;&lt;br&gt;рендеру" style="edgeLabel;html=1;align=center;verticalAlign=middle;resizable=0;points=[];" vertex="1" connectable="0" parent="4_UEG6HJdvu9gBl9bT9P-36">
          <mxGeometry x="-0.0368" y="-2" relative="1" as="geometry">
            <mxPoint as="offset" />
          </mxGeometry>
        </mxCell>
        <mxCell id="4_UEG6HJdvu9gBl9bT9P-44" style="rounded=0;orthogonalLoop=1;jettySize=auto;html=1;dashed=1;" edge="1" parent="1">
          <mxGeometry relative="1" as="geometry">
            <mxPoint x="230" y="250" as="targetPoint" />
            <mxPoint x="360" y="250" as="sourcePoint" />
          </mxGeometry>
        </mxCell>
        <mxCell id="4_UEG6HJdvu9gBl9bT9P-47" value="Выйти из аккаунта" style="edgeLabel;html=1;align=center;verticalAlign=middle;resizable=0;points=[];" vertex="1" connectable="0" parent="4_UEG6HJdvu9gBl9bT9P-44">
          <mxGeometry x="0.1427" y="-1" relative="1" as="geometry">
            <mxPoint x="14" as="offset" />
          </mxGeometry>
        </mxCell>
      </root>
    </mxGraphModel>
  </diagram>
</mxfile>
